<svg xmlns="http://www.w3.org/2000/svg" viewBox="0 0 249.44 361.65"><defs><style>.cls-1{fill:#2e2b28;}.cls-2{fill:#af1737;}.cls-3{fill:#ffdf45;}.cls-4{fill:#9b9593;}.cls-5{fill:#fff;}.cls-6{fill:#e6c386;}</style></defs><title>Man</title><g id="Слой_2" data-name="Слой 2"><g id="Layer_1" data-name="Layer 1"><path class="cls-1" d="M133.1,349.42l5.4,2.31v9.91H123s1-4,0-4-12.55,4-12.55,4H90.93v-2l34.52-10.24Z"/><path class="cls-1" d="M100.32,335.36l5.4,2.31v9.91H90.19s1-4,0-4-12.55,4-12.55,4H58.14v-2l34.52-10.24Z"/><path class="cls-2" d="M136.19,329.27H123v21.47s1.32,2.31,6.61,2.31,6.61-2.31,6.61-2.31Z"/><path class="cls-2" d="M103.4,315.21H90.19v21.47S91.51,339,96.79,339s6.61-2.31,6.61-2.31Z"/><circle class="cls-3" cx="120.15" cy="353.69" r="1.21"/><circle class="cls-3" cx="117.17" cy="354.33" r="1.21"/><circle class="cls-3" cx="114.19" cy="354.96" r="1.21"/><circle class="cls-3" cx="111.22" cy="355.6" r="1.21"/><circle class="cls-3" cx="87.36" cy="339.62" r="1.21"/><circle class="cls-3" cx="84.38" cy="340.26" r="1.21"/><circle class="cls-3" cx="81.41" cy="340.9" r="1.21"/><circle class="cls-3" cx="78.43" cy="341.54" r="1.21"/><path class="cls-4" d="M83.26,117S34,90.88,20.48,77.33,0,10.27,0,6,2.64.36,5.62,0,34.36,2.67,37,3s2,6.61,2,6.61-5,50.22-3.3,53.85S57.16,84.93,66.08,92.2s22.14,14.21,29.73,15.53c2.15.37,7,.93,12.86,1.55-2.2,25.14-7.6,99.94.6,100.56s30.19-80.07,34.83-97.4c2.37.16,4.1.26,4.9.26a45.58,45.58,0,0,0,17.51-3.52c5.62-2.53,25.44-15.31,32.71-20.93S213.76,72,214.73,69.41s.35-38.32,0-45.92,4-5.95,4-5.95h23.09c7.6,0,5,.66,7.6,4.29l-3,19.49S234.24,85.26,227.3,94.51s-46.91,35.35-57.49,40.31S158.91,147,158.91,147L144,218.41l-7.6-1.32.66,113.43a11.32,11.32,0,0,1-9.25,4.63c-6.28,0-7.27-3-7.27-3l.33-116.4-16.52-2.31V321.26s-3,2.64-8.59,2.64-7.6-2.64-7.6-2.64L87.88,211.8l-8.55-1.65s7.23-84.91,7.23-88.54A4.85,4.85,0,0,0,83.26,117Z"/><path class="cls-5" d="M109.27,209.83c-8.2-.62-2.8-75.41-.6-100.56,11.55,1.2,27.29,2.59,35.44,3.15C139.46,129.77,117.43,210.44,109.27,209.83Z"/><path class="cls-6" d="M112.82,106.93c.7-1.39,1.34-2.71,1.67-3.49,1-2.31,1.32-7.27-.66-9.91a4.1,4.1,0,0,0-3.06-1.62h0l39.36-23.73,11.13-37.53S150,26,150.69,38s-12.19,9.46-12.19,9.46l15,9.44L136.19,56c-2.6,2.59,1.56-.78,0,0-4.63,2.31,16.3,17,12.34,21.95s-6.61,21.47-6.61,31.39c0,6.81,0,7.63-.75,7.9q0,.45,0,.9c0,9.62-7.2,17.42-16.09,17.42S109,127.8,109,118.17A18.22,18.22,0,0,1,112.82,106.93Z"/></g></g></svg>