<svg xmlns="http://www.w3.org/2000/svg" viewBox="0 0 54.33 85.19"><defs><style>.cls-1{fill:#e6c386;}</style></defs><title>Man_hand</title><g id="Слой_2" data-name="Слой 2"><g id="Layer_1" data-name="Layer 1"><path class="cls-1" d="M25.49,85.19l-23-3.09s-3.09.34-2.4-3.77,4.12-26.07,4.12-36-.69-19.9-.69-19.9-.69-6.18.34-7.55S6.27,11.09,7,12.12,10,16.24,9.71,18.64,8.68,42,8.68,42,7.65,44,9.36,44h1.72l1.67-12.35V9.38s.74-5.83,3.14-5.83S20.34,5.6,20,9.72s-2.06,18.53-2.06,18.53L16.22,42.66a2.12,2.12,0,0,0,1.37,1.72c1.37.69,2.4-5.83,2.4-5.83l3.43-19.9L25.49,5.26S26.86-.91,28.92.12s2.74,4.46,1.72,9.26S25.14,42.6,25.14,42.6s-1,3.49.34,3.49,3.69-6.86,5.62-20.58S33.38,7.66,35.78,7.66s3.43-2.74,3.43,3.77a162,162,0,0,1-3.09,27.44c-2.06,11-4.8,27.79-4.8,30.19S30.63,72.5,33,71.13s2.4-2.4,6.18-7.55,4.46-9.26,6.86-10.29,3.09-3.43,5.49-1.37,4.8.34,0,5.49a91.14,91.14,0,0,0-12,15.78c-3.77,6.18-4.12,8.92-7.2,10.29A25.2,25.2,0,0,1,25.49,85.19Z"/></g></g></svg>