<svg xmlns="http://www.w3.org/2000/svg" viewBox="0 0 240.8 337.75"><defs><style>.cls-1{fill:#e62337;}.cls-2{fill:#e6c386;}.cls-3{fill:#af1737;}</style></defs><title>Woman</title><g id="Слой_2" data-name="Слой 2"><g id="Layer_1" data-name="Layer 1"><path class="cls-1" d="M153.67,323.59l14.85-.31v-1.42s-11.29-1-13.93-2.08a32.78,32.78,0,0,1-5.52-3.1h-7.75v6.91h1.83l.31-2.64Z"/><path class="cls-2" d="M149.06,219v99a5.41,5.41,0,0,1-3.69,1.21,4.48,4.48,0,0,1-3.46-1.91V220.1Z"/><path class="cls-1" d="M116.45,337.75l14.85-.31V336s-11.29-1-13.93-2.08a32.78,32.78,0,0,1-5.52-3.1h-7.75v6.91h1.83l.31-2.64Z"/><path class="cls-2" d="M112,222.34v110a5.41,5.41,0,0,1-3.69,1.21,4.48,4.48,0,0,1-3.46-1.91V223.49Z"/><path class="cls-3" d="M236.38,16.44l-25.51,1.15s-2.83.46-3.29,5.07,1.84,28.11,2.07,35.71-.69,27-.69,27-.23,1.84-4.15,3.92-18,17-57.83,20.5-73,.46-85.7-4.84-29-18.43-29-18.43-.69-29,0-38.24,1.15-25.11,1.15-25.11a1.89,1.89,0,0,0-1.46-2.76c-2.46-.46-28.49-.92-28.49-.92S0,19,0,21.51s1.15,28.1,11.29,51.72S26,99.84,26,99.84s32.48,27.42,55.06,37.32c3.69,2.53,8.06,1.61,9.91,10.14s11.29,71.19,11.75,82.71c15.44-1.61,66.58-6.91,66.58-6.91s-1-36.63-2.21-47.92-1.94-27-1.94-27L185,136.7,162.42,130s-.23-7.83.46-9.91,2.53-4.15,7.37-4.84,36.63-8.06,50.45-25.57,19.58-60.59,19.58-60.59,1.15-9.68,0-10.6A22.39,22.39,0,0,0,236.38,16.44Z"/><path class="cls-2" d="M120.67,60.19c-5.13-3.64-8.7-11.59-8.7-20.82,0-12.67,6.7-22.93,15-22.93,7.35,0,13.45,8.11,14.73,18.8A125.41,125.41,0,0,0,156.91,0c3.68,6.22-2,7-2,7l.56,14.52a73.08,73.08,0,0,0,2.2,9.53c1.1,2.93,7.33,9,8.8,10.45a2,2,0,0,1,0,2.93,8.93,8.93,0,0,1-1.83,1.47c-.55.18-4,2.2-6.41,3.3s-2.57,3.67-2.57,6.23a19.91,19.91,0,0,1-12.46-2.57c2.93,6.23,12.83,7,12.83,7v3.48c2,1.28,0,6.6,0,6.6a13.88,13.88,0,0,1-5.13,3.85C148,74.88,135.68,76,135.68,76s-3.85-.37-5.32,6.41,2.2,16.68,7.15,33.91,18.88,46.19,13.75,48.2c-8,3.12-21.63-12.1-21.63-12.1l14.85-12.1L121,132.43l-7.33-19.61s0-15-.37-23.83a112.61,112.61,0,0,0-2.93-19.06s-.6-.13-1.64-.38A112.67,112.67,0,0,0,120.67,60.19Z"/></g></g></svg>