<svg xmlns="http://www.w3.org/2000/svg" viewBox="0 0 41.05 65.57"><defs><style>.cls-1{fill:#e6c386;}</style></defs><title>Woman_hand</title><g id="Слой_2" data-name="Слой 2"><g id="Layer_1" data-name="Layer 1"><path class="cls-1" d="M21.46,65.57,2.15,63.37S-.48,63.23.08,59,2.42,40.61,2.56,34.68s.14-18.62.14-18.62,0-1.79,1.38-1.66,1.79.41,1.79,2.21-.55,16-.55,16S5,33.71,6,33.71s1.24-.41,1.52-2.9,2.62-27,2.62-27S11,1.71,11.94,1.85s1.52.55,1.52,2.21S11.8,32.74,11.8,32.74s-.28,1.52.83,1.52,1.52-2.62,1.52-2.62l5.24-29.8s.83-2.2,2.07-1.79S22.7,2.53,22.7,2.53L19.25,34.4s-.55,1.1.41,1.1.55,1.74,1.38-2.72S26.56,6.12,26.56,6.12a1.52,1.52,0,0,1,1.66-.69c1.1.28,1.52.41,1.38,2.48s-5.38,45.93-5.38,45.93-1.1.83.14,1,4.47-2.35,5.27-4.55,3.7-9.38,4.94-9.66,1.1-1.38,3.31-.83S41,40.33,41,41.43s-2.48,2.62-4.41,5.24-4.41,7.86-6.21,10.48S26.56,63,25,63.78,21.46,65.57,21.46,65.57Z"/></g></g></svg>