<svg xmlns="http://www.w3.org/2000/svg" viewBox="0 0 171.6 171.3"><defs><style>.cls-1{fill:#fff;}</style></defs><title>Simply_clever</title><g id="Слой_2" data-name="Слой 2"><g id="Слой_1-2" data-name="Слой 1"><path class="cls-1" d="M56.21,68.79a4.47,4.47,0,0,0,2,1.18,10.25,10.25,0,0,0,5.3,0,4.4,4.4,0,0,0,2-1.18,5.37,5.37,0,0,0,1.21-2.19A11.72,11.72,0,0,0,67,63.23V61.72a11.78,11.78,0,0,0-.42-3.39,5.38,5.38,0,0,0-1.21-2.19,4.4,4.4,0,0,0-2-1.18,9.25,9.25,0,0,0-2.65-.35,9.08,9.08,0,0,0-2.65.35,4.54,4.54,0,0,0-2,1.18A5.27,5.27,0,0,0,55,58.33a11.69,11.69,0,0,0-.42,3.37v1.51A11.82,11.82,0,0,0,55,66.6,5.31,5.31,0,0,0,56.21,68.79Zm1.1-7.2a7.88,7.88,0,0,1,.23-2.05,3.18,3.18,0,0,1,.67-1.31,2.44,2.44,0,0,1,1.1-.7,5.05,5.05,0,0,1,1.51-.21,5,5,0,0,1,1.51.21,2.48,2.48,0,0,1,1.1.7,3.18,3.18,0,0,1,.67,1.32,7.94,7.94,0,0,1,.23,2.06v1.69a7.94,7.94,0,0,1-.23,2.06,3.18,3.18,0,0,1-.67,1.32,2.48,2.48,0,0,1-1.1.7,5.54,5.54,0,0,1-3,0,2.48,2.48,0,0,1-1.1-.7,3.18,3.18,0,0,1-.67-1.32,7.94,7.94,0,0,1-.23-2.06Z"/><path class="cls-1" d="M69,72.64h1.9a.26.26,0,0,0,.16,0,.23.23,0,0,0,.07-.14l1.45-5.69q0-.17-.14-.15l-2.61.31a.25.25,0,0,0-.15.05.3.3,0,0,0-.06.15l-.76,5.32Q68.84,72.64,69,72.64Z"/><path class="cls-1" d="M88.2,68.79a5.32,5.32,0,0,0,1.23-2.19,11.7,11.7,0,0,0,.42-3.4V61.7a11.56,11.56,0,0,0-.42-3.37,5.33,5.33,0,0,0-1.23-2.19,4.51,4.51,0,0,0-2-1.18,9.15,9.15,0,0,0-2.64-.35q-.51,0-1,0t-.95.09q-.46.06-.85.14a6.28,6.28,0,0,0-.7.18.4.4,0,0,0-.15.07.15.15,0,0,0,0,.14l.36,2.09a.38.38,0,0,0,.05.14s.07,0,.14,0A8.32,8.32,0,0,1,82,57.29q.76,0,1.45,0a5.39,5.39,0,0,1,1.45.18A2.62,2.62,0,0,1,86,58a2.94,2.94,0,0,1,.72,1.13,6,6,0,0,1,.33,1.75H81.25a.16.16,0,0,0-.18.19v2.22a.16.16,0,0,0,.18.18h5.86a7.55,7.55,0,0,1-.26,2,3.16,3.16,0,0,1-.7,1.29,2.55,2.55,0,0,1-1.12.69,5.24,5.24,0,0,1-1.54.21q-.84,0-1.63-.06t-1.51-.17q-.18,0-.2.16l-.31,2.12A.19.19,0,0,0,80,70l.63.13.86.12,1,.08q.53,0,1.09,0A9.17,9.17,0,0,0,86.24,70,4.51,4.51,0,0,0,88.2,68.79Z"/><path class="cls-1" d="M103.07,57.29V55.08a.16.16,0,0,0-.18-.18H91.52a.16.16,0,0,0-.18.18v2.22a.16.16,0,0,0,.18.18h4.32V69.85A.16.16,0,0,0,96,70h2.35a.16.16,0,0,0,.18-.18V57.48h4.32A.16.16,0,0,0,103.07,57.29Z"/><path class="cls-1" d="M106.19,68.79a4.47,4.47,0,0,0,2,1.18,10.25,10.25,0,0,0,5.3,0,4.4,4.4,0,0,0,2-1.18,5.38,5.38,0,0,0,1.21-2.19,11.74,11.74,0,0,0,.42-3.38V61.72a11.79,11.79,0,0,0-.42-3.39,5.38,5.38,0,0,0-1.21-2.19,4.4,4.4,0,0,0-2-1.18,9.25,9.25,0,0,0-2.65-.35,9.07,9.07,0,0,0-2.65.35,4.54,4.54,0,0,0-2,1.18A5.27,5.27,0,0,0,105,58.33a11.7,11.7,0,0,0-.42,3.37v1.51a11.83,11.83,0,0,0,.42,3.4A5.31,5.31,0,0,0,106.19,68.79Zm1.1-7.2a7.88,7.88,0,0,1,.23-2.05,3.18,3.18,0,0,1,.67-1.31,2.45,2.45,0,0,1,1.1-.7,5.05,5.05,0,0,1,1.51-.21,5,5,0,0,1,1.51.21,2.48,2.48,0,0,1,1.1.7,3.18,3.18,0,0,1,.67,1.32,7.94,7.94,0,0,1,.23,2.06v1.69a7.94,7.94,0,0,1-.23,2.06,3.18,3.18,0,0,1-.67,1.32,2.48,2.48,0,0,1-1.1.7,5.53,5.53,0,0,1-3,0,2.48,2.48,0,0,1-1.1-.7,3.18,3.18,0,0,1-.67-1.32,7.94,7.94,0,0,1-.23-2.06Z"/><path class="cls-1" d="M60.18,84.14a4,4,0,0,0-1-.92,10,10,0,0,0-1.63-.83l-1.87-.79q-.77-.32-1.28-.55a4.13,4.13,0,0,1-.83-.48,1.46,1.46,0,0,1-.44-.53,1.67,1.67,0,0,1-.13-.69,1.25,1.25,0,0,1,.2-.72,1.29,1.29,0,0,1,.62-.45,4.19,4.19,0,0,1,1.1-.23q.68-.06,1.63-.06h.63l.74,0,.8.07.77.09a.17.17,0,0,0,.22-.15l.38-2a.18.18,0,0,0-.14-.23,11.1,11.1,0,0,0-1.72-.3,19.29,19.29,0,0,0-2-.1,15.52,15.52,0,0,0-2.75.21,5.12,5.12,0,0,0-1.89.69,2.9,2.9,0,0,0-1.09,1.26,4.6,4.6,0,0,0-.35,1.89,4.69,4.69,0,0,0,.15,1.23,3.08,3.08,0,0,0,.54,1.08,4.7,4.7,0,0,0,1.05,1,10.72,10.72,0,0,0,1.68.92l1.62.74q.89.39,1.44.67a4.84,4.84,0,0,1,.85.52,1.28,1.28,0,0,1,.41.51,1.78,1.78,0,0,1,.1.64,2.69,2.69,0,0,1-.11.81,1,1,0,0,1-.47.56,2.89,2.89,0,0,1-1,.33,12.19,12.19,0,0,1-1.83.11l-.86,0-.82-.05L52,88.32l-1-.14a.17.17,0,0,0-.22.15l-.39,2a.18.18,0,0,0,.14.23,13.6,13.6,0,0,0,1.87.32,20.68,20.68,0,0,0,2.25.12,13.18,13.18,0,0,0,3.06-.29,4.69,4.69,0,0,0,1.87-.85,2.85,2.85,0,0,0,.94-1.39,6.39,6.39,0,0,0,.26-1.89,5.78,5.78,0,0,0-.15-1.38A3,3,0,0,0,60.18,84.14Z"/><rect class="cls-1" x="63.38" y="75.62" width="2.73" height="15.14" rx="0.18" ry="0.18"/><path class="cls-1" d="M83.34,75.62H80.5a.32.32,0,0,0-.17,0,.35.35,0,0,0-.11.13L77,81.49l-.17.35-.14.31-.1.23,0,.1-.05-.12-.1-.24-.14-.31q-.08-.17-.17-.32l-3.22-5.72a.35.35,0,0,0-.11-.13.32.32,0,0,0-.17,0H69.74a.16.16,0,0,0-.18.18V90.57a.16.16,0,0,0,.18.18H72.1a.16.16,0,0,0,.18-.18l0-11s0,0,0,.07l.08.19.12.28.15.32,2.77,5.14a.35.35,0,0,0,.11.13.32.32,0,0,0,.17,0h1.61a.32.32,0,0,0,.17,0,.35.35,0,0,0,.11-.13l2.8-5.23.13-.27.11-.25.07-.18s0-.07,0-.07l0,11a.16.16,0,0,0,.18.18h2.36a.16.16,0,0,0,.18-.18V75.8A.16.16,0,0,0,83.34,75.62Z"/><path class="cls-1" d="M96.78,76.37a5.18,5.18,0,0,0-2.06-.71,21.51,21.51,0,0,0-3.27-.21h-.92l-1.1,0-1.16,0-1.11.05a.17.17,0,0,0-.18.19v14.8a.16.16,0,0,0,.18.18H89.5a.16.16,0,0,0,.18-.18V85.44l.32,0h1.44a22,22,0,0,0,3.27-.2,5.12,5.12,0,0,0,2.06-.71,2.69,2.69,0,0,0,1.07-1.38,6.67,6.67,0,0,0,.31-2.2V79.94a6.64,6.64,0,0,0-.31-2.19A2.69,2.69,0,0,0,96.78,76.37Zm-1.36,4.41a3.26,3.26,0,0,1-.17,1.17,1.33,1.33,0,0,1-.62.69,3.24,3.24,0,0,1-1.21.33,18.56,18.56,0,0,1-1.93.08h-.43l-.49,0-.49,0-.4,0V78l.4,0,.49,0,.49,0h.43a18.56,18.56,0,0,1,1.93.08,3.25,3.25,0,0,1,1.21.33,1.33,1.33,0,0,1,.62.69,3.25,3.25,0,0,1,.17,1.17Z"/><path class="cls-1" d="M109.21,88.17h-5.84V75.8a.16.16,0,0,0-.19-.18h-2.36a.16.16,0,0,0-.18.18V90.57a.16.16,0,0,0,.18.18h8.39a.16.16,0,0,0,.18-.18V88.35A.16.16,0,0,0,109.21,88.17Z"/><path class="cls-1" d="M114.68,90.57a.16.16,0,0,0,.18.18h2.35a.16.16,0,0,0,.18-.18v-4.9l4.9-9.89q.07-.16-.1-.16h-2.67a.29.29,0,0,0-.16,0,.38.38,0,0,0-.1.13L116,82.65l-3.22-6.87a.38.38,0,0,0-.1-.13.29.29,0,0,0-.16,0h-2.69c-.12,0-.15.05-.1.16l4.92,9.89Z"/><path class="cls-1" d="M59.08,108.92q-.76.1-1.58.16t-1.71.06a6,6,0,0,1-1.67-.21,2.71,2.71,0,0,1-1.22-.72,3.23,3.23,0,0,1-.74-1.35,7.42,7.42,0,0,1-.25-2.09V103a7.19,7.19,0,0,1,.26-2.08,3.27,3.27,0,0,1,.75-1.34,2.71,2.71,0,0,1,1.22-.72,6,6,0,0,1,1.67-.21q.78,0,1.59.06A13.09,13.09,0,0,1,59,99a.16.16,0,0,0,.22-.14l.34-2.06a.19.19,0,0,0-.14-.24q-.33-.1-.75-.19t-.89-.15q-.47-.06-1-.09t-1,0a10,10,0,0,0-2.76.35,4.71,4.71,0,0,0-2.05,1.18,5.31,5.31,0,0,0-1.28,2.19,11,11,0,0,0-.44,3.37v1.51a11.18,11.18,0,0,0,.44,3.4,5.31,5.31,0,0,0,1.28,2.19,4.71,4.71,0,0,0,2.05,1.18,10,10,0,0,0,2.76.35l1.06,0,1-.07.91-.11q.43-.07.77-.15a.24.24,0,0,0,.13-.08.23.23,0,0,0,0-.16l-.3-2.1A.17.17,0,0,0,59.08,108.92Z"/><path class="cls-1" d="M70.62,108.9H64.78V96.53a.16.16,0,0,0-.18-.18H62.23a.16.16,0,0,0-.18.18V111.3a.16.16,0,0,0,.18.18h8.39a.16.16,0,0,0,.18-.18v-2.22A.16.16,0,0,0,70.62,108.9Z"/><path class="cls-1" d="M82.23,96.34H73a.16.16,0,0,0-.18.18V111.3a.16.16,0,0,0,.18.18h9.18a.16.16,0,0,0,.18-.18v-2.22a.16.16,0,0,0-.18-.18H75.59v-4h5.33a.16.16,0,0,0,.18-.18v-2.21a.16.16,0,0,0-.18-.18H75.59V98.93h6.63a.16.16,0,0,0,.18-.18V96.53A.16.16,0,0,0,82.23,96.34Z"/><path class="cls-1" d="M94.26,96.34a.27.27,0,0,0-.16,0,.27.27,0,0,0-.08.14L90.3,109h0L86.55,96.52a.27.27,0,0,0-.08-.14.27.27,0,0,0-.16,0H83.75q-.17,0-.13.17l4.74,14.79a.27.27,0,0,0,.08.14.26.26,0,0,0,.16,0H92a.27.27,0,0,0,.16,0,.34.34,0,0,0,.09-.14L97,96.52q.06-.17-.12-.17Z"/><path class="cls-1" d="M108.19,96.34H99a.16.16,0,0,0-.19.18V111.3a.16.16,0,0,0,.19.18h9.18a.16.16,0,0,0,.19-.18v-2.22a.16.16,0,0,0-.19-.18h-6.63v-4h5.33a.16.16,0,0,0,.18-.18v-2.21a.16.16,0,0,0-.18-.18h-5.33V98.93h6.63a.16.16,0,0,0,.19-.18V96.53A.16.16,0,0,0,108.19,96.34Z"/><path class="cls-1" d="M120.08,106.78l-.32-.54-.29-.46a4.49,4.49,0,0,0,1.9-.77,2.56,2.56,0,0,0,.87-1.29,6.83,6.83,0,0,0,.25-2v-1.21a6.35,6.35,0,0,0-.31-2.17A2.56,2.56,0,0,0,121.08,97a5.37,5.37,0,0,0-2.08-.66,24.78,24.78,0,0,0-3.28-.18l-2.13,0q-1.08,0-2.24.11a.17.17,0,0,0-.18.19V111.3a.16.16,0,0,0,.18.18h2.36a.16.16,0,0,0,.18-.18V106l1.1.06,1,0h.8l2.74,5.29a.38.38,0,0,0,.1.13.29.29,0,0,0,.16,0h2.8q.18,0,.09-.16ZM119,103.25a3.22,3.22,0,0,1-1.18.29q-.74.07-1.85.07l-1,0q-.55,0-1-.06V98.7l.42,0,.51,0h1.06q1.13,0,1.87.06a3.36,3.36,0,0,1,1.19.27,1.25,1.25,0,0,1,.63.65,3,3,0,0,1,.18,1.17v.66a3.08,3.08,0,0,1-.18,1.16A1.28,1.28,0,0,1,119,103.25Z"/><path class="cls-1" d="M80.93,128.8l-2.26.31a.18.18,0,0,0-.18.21V132a.16.16,0,0,0,.18.18h2.26a.16.16,0,0,0,.18-.18V129Q81.12,128.79,80.93,128.8Z"/><path class="cls-1" d="M81.07,116.73l-2.39.32a.18.18,0,0,0-.18.21l.16,9.08a.16.16,0,0,0,.18.18H80.9a.16.16,0,0,0,.18-.18l.16-9.44Q81.25,116.72,81.07,116.73Z"/><path class="cls-1" d="M87,116.73l-2.39.32a.18.18,0,0,0-.18.21l.16,9.08a.16.16,0,0,0,.18.18h2.06a.16.16,0,0,0,.18-.18l.16-9.44Q87.19,116.72,87,116.73Z"/><path class="cls-1" d="M86.87,128.8l-2.26.31a.18.18,0,0,0-.18.21V132a.16.16,0,0,0,.18.18h2.26a.16.16,0,0,0,.18-.18V129Q87.06,128.79,86.87,128.8Z"/><path class="cls-1" d="M92.82,128.8l-2.26.31a.18.18,0,0,0-.18.21V132a.16.16,0,0,0,.18.18h2.26A.16.16,0,0,0,93,132V129Q93,128.79,92.82,128.8Z"/><path class="cls-1" d="M93,116.73l-2.39.32a.18.18,0,0,0-.18.21l.16,9.08a.16.16,0,0,0,.18.18h2.06a.16.16,0,0,0,.18-.18l.16-9.44Q93.14,116.72,93,116.73Z"/><path class="cls-1" d="M37.94,37.84c1.67-1.71,1-3.48-.55-5C35,30.44,32.61,28,30.14,25.66a19.89,19.89,0,0,0-3.07-1.92c-1,.92-2.38,1.57-2.68,2.55a4.2,4.2,0,0,0,.75,3.44c2.36,2.71,5,5.17,7.55,7.72C34.32,39.08,36.2,39.61,37.94,37.84Z"/><path class="cls-1" d="M144.71,24c-1.11.29-1.86.27-2.23.63-3.2,3.15-6.45,6.26-9.37,9.65-.54.63-.11,3,.63,3.58.94.68,3.19.9,4,.24a104.86,104.86,0,0,0,9.12-9.08,3.33,3.33,0,0,0,.17-3C146.54,25.16,145.36,24.59,144.71,24Z"/><path class="cls-1" d="M14.86,82.76c-.24-.05-.48-.1-.72-.13a41.18,41.18,0,0,0-5.26,0,34.12,34.12,0,0,0-5,0,6.67,6.67,0,0,0-.68.14C1.92,83.08.14,84.4,0,85.47s1.43,3.27,2.38,3.35a78.9,78.9,0,0,0,13.14,0c.9-.08,2.25-2.26,2.24-3.45C17.76,84.43,16,83,14.86,82.76Z"/><path class="cls-1" d="M167.77,82.61c-3.5,0-7,0-10.51,0-2.26,0-3.8.86-3.82,3.21s1.68,3.25,3.8,3.35c1.7.08,3.4,0,5.11,0h0c1.9,0,3.81.1,5.71,0s3.6-1.09,3.54-3.29S170,82.59,167.77,82.61Z"/><path class="cls-1" d="M82.51,9.15c0,1.9,0,3.79,0,5.69a3.06,3.06,0,0,0,3.13,3.31A3,3,0,0,0,88.89,15c.08-3.89.07-7.78,0-11.67A3,3,0,0,0,85.78,0c-2.11,0-3.24,1.32-3.28,3.46,0,1.89,0,3.79,0,5.69Z"/><path class="cls-1" d="M75.4,32.32a54.17,54.17,0,0,0-41.22,69.46c4.23,13.54,12.4,24.22,25.21,30.63,3.7,1.85,5,3.85,4.87,7.65-.17,7,0,14-.05,21,0,2.66,1.09,4.15,4,4,1.67-.09,3.34,0,5.12,0l.37,6.24H98l.41-6.19h8.79c0-7.92.3-15.42-.1-22.89-.28-5.22.77-9,6.3-10.45a6.84,6.84,0,0,0,2.07-1.19c18.26-13,26.9-30.56,23.87-53C135.26,47.22,105.3,26.19,75.4,32.32Zm25.32,125.46H71V145.49h29.71Zm7.39-30.64c-5.07,2.51-8.23,5.91-7.34,12a28.72,28.72,0,0,1,0,4H71c-.25-2.52-.69-5-.69-7.44,0-3.95-2-6.31-5.42-7.8-13.26-5.72-21.12-16.14-25-29.64-8-27.59,11.19-56.44,39.67-60a48,48,0,0,1,53.65,41.07C136,98.39,125.48,118.56,108.12,127.15Z"/></g></g></svg>