<svg xmlns="http://www.w3.org/2000/svg" viewBox="0 0 265.62 49.79"><defs><style>.cls-1{fill:#fff;}</style></defs><title>Text_2</title><g id="Слой_2" data-name="Слой 2"><g id="Layer_1" data-name="Layer 1"><path class="cls-1" d="M30.44,10.33H5.84a.47.47,0,0,0-.53.53v8.85q0,4.22,0,7.32t-.21,5.3A28.72,28.72,0,0,1,4.58,36a8,8,0,0,1-.85,2.36,4.2,4.2,0,0,1-1.36,1.45,7.77,7.77,0,0,1-2,.86A.66.66,0,0,0,0,40.9a.68.68,0,0,0,0,.44l1.51,8a.44.44,0,0,0,.61.4A23.83,23.83,0,0,0,6.69,48,11.6,11.6,0,0,0,10,45.51a12.65,12.65,0,0,0,2.3-3.76,25.24,25.24,0,0,0,1.42-5.38,65.6,65.6,0,0,0,.72-7.43q.2-4.26.2-9.9h7V49a.47.47,0,0,0,.53.53h8.24A.47.47,0,0,0,31,49V10.87A.47.47,0,0,0,30.44,10.33Z"/><path class="cls-1" d="M58.69,10.84a.84.84,0,0,0-.25-.4.75.75,0,0,0-.44-.11H46.25a.75.75,0,0,0-.44.11.84.84,0,0,0-.25.4L34,49c-.11.34,0,.5.37.5h9.11a.62.62,0,0,0,.66-.5l1.57-5.87H58.53L60.12,49a.62.62,0,0,0,.66.5H70q.53,0,.37-.5ZM47.9,35l4.2-15.62L56.35,35Z"/><path class="cls-1" d="M105.37,10.33h-9a1,1,0,0,0-.46.09.93.93,0,0,0-.33.36L84,30.63a14.26,14.26,0,0,0-1,1.93,2.57,2.57,0,0,1-.33.73V10.87a.47.47,0,0,0-.53-.53H73.92a.47.47,0,0,0-.53.53V49a.47.47,0,0,0,.53.53h9a1,1,0,0,0,.46-.09,1,1,0,0,0,.33-.36l11.66-20q.29-.5.5-1l.37-.8c.11-.23.19-.42.24-.56s.09-.21.11-.21l0,22.4a.47.47,0,0,0,.53.53h8.24a.47.47,0,0,0,.53-.53V10.87A.47.47,0,0,0,105.37,10.33Z"/><path class="cls-1" d="M82.17,5.94a5.67,5.67,0,0,0,2.55,1.28A17.85,17.85,0,0,0,89,7.63a17.85,17.85,0,0,0,4.24-.41,5.77,5.77,0,0,0,2.56-1.28A4.45,4.45,0,0,0,97,3.73,13.86,13.86,0,0,0,97.4.53.47.47,0,0,0,96.87,0H92.06a.51.51,0,0,0-.58.53,3.82,3.82,0,0,1-.31,1.2,2.13,2.13,0,0,1-.57.76,2.15,2.15,0,0,1-.77.4A3.22,3.22,0,0,1,89,3a3.21,3.21,0,0,1-.88-.12,2.15,2.15,0,0,1-.77-.4,2.11,2.11,0,0,1-.57-.76,3.82,3.82,0,0,1-.31-1.2A.51.51,0,0,0,85.85,0H81.06a.47.47,0,0,0-.53.53,13.7,13.7,0,0,0,.37,3.2A4.49,4.49,0,0,0,82.17,5.94Z"/><path class="cls-1" d="M154.85,17.22a9.66,9.66,0,0,0-4.56-2.27,33.07,33.07,0,0,0-7.37-.68h-1.78q-1,0-2,.05V10.87a.47.47,0,0,0-.53-.53h-8.24a.47.47,0,0,0-.53.53v3.45q-1.12-.05-2.07-.05h-1.78a33.25,33.25,0,0,0-7.39.68A9.67,9.67,0,0,0,114,17.22a8.42,8.42,0,0,0-2.31,4.24A28.63,28.63,0,0,0,111,28v3.8a29,29,0,0,0,.64,6.62A8.42,8.42,0,0,0,114,42.7,9.58,9.58,0,0,0,118.56,45a33.88,33.88,0,0,0,7.39.67h2q1.08,0,1.85-.07V49a.47.47,0,0,0,.53.53h8.24a.47.47,0,0,0,.53-.53V45.54q.74.05,1.83.07h2a33.7,33.7,0,0,0,7.37-.67,9.57,9.57,0,0,0,4.56-2.26,8.5,8.5,0,0,0,2.33-4.25,28.38,28.38,0,0,0,.65-6.62V28a28.07,28.07,0,0,0-.65-6.58A8.5,8.5,0,0,0,154.85,17.22Zm-25.05,20q-.9.08-2,.12t-2.06,0a11.65,11.65,0,0,1-2.58-.24,3.19,3.19,0,0,1-1.66-.9,3.89,3.89,0,0,1-.89-1.87,15.33,15.33,0,0,1-.27-3.17V28.75a15.36,15.36,0,0,1,.27-3.18,4,4,0,0,1,.89-1.89,3.15,3.15,0,0,1,1.66-.92,11.71,11.71,0,0,1,2.58-.24q1.06,0,2.1.05l1.91.11Zm18.68-6a13.93,13.93,0,0,1-.29,3.17,3.93,3.93,0,0,1-.94,1.87,3.34,3.34,0,0,1-1.67.9,11,11,0,0,1-2.48.24q-1,0-2.06,0t-1.93-.12V22.69q.85-.08,1.93-.12t2.06,0a11.3,11.3,0,0,1,2.7.27,3,3,0,0,1,1.65,1,4.64,4.64,0,0,1,.82,2.15,23.57,23.57,0,0,1,.23,3.63Z"/><path class="cls-1" d="M219.15,10.84a.84.84,0,0,0-.25-.4.75.75,0,0,0-.44-.11H206.72a.75.75,0,0,0-.44.11.84.84,0,0,0-.25.4L194.66,48.32,183.12,29.89l12-19.1q.29-.45-.24-.45h-10a1,1,0,0,0-.47.09.94.94,0,0,0-.33.36l-6.91,12-6.91-12a.94.94,0,0,0-.33-.36,1,1,0,0,0-.46-.09h-10q-.53,0-.24.45l12,19.1-12,19.18q-.29.45.24.45h10a1,1,0,0,0,.46-.09,1,1,0,0,0,.33-.36l6.93-12.41,6.88,12.41a1,1,0,0,0,.33.36,1,1,0,0,0,.47.09h19.08a.62.62,0,0,0,.66-.5l1.57-5.87H219L220.59,49a.62.62,0,0,0,.66.5h9.17q.53,0,.37-.5ZM208.36,35l4.2-15.62L216.81,35Z"/><path class="cls-1" d="M265.3,10.33h-10a1,1,0,0,0-.85.43L243.15,25.9v-15a.47.47,0,0,0-.53-.53h-8.29a.47.47,0,0,0-.53.53V49a.47.47,0,0,0,.53.53h8.29a.47.47,0,0,0,.53-.53V33.8L253.8,49.1a.94.94,0,0,0,.82.42H265q.56,0,.21-.42L250.82,29.17l14.69-18.41Q265.81,10.34,265.3,10.33Z"/></g></g></svg>
