<svg xmlns="http://www.w3.org/2000/svg" viewBox="0 0 224.74 41.05"><defs><style>.cls-1{fill:#fff;}</style></defs><title>Text_4</title><g id="Слой_2" data-name="Слой 2"><g id="Layer_1" data-name="Layer 1"><path class="cls-1" d="M29,21.69a9.31,9.31,0,0,0-1.7-2.07,11.19,11.19,0,0,0-2.15-1.53,8.39,8.39,0,0,0,2.5-3,9.33,9.33,0,0,0,.9-4.22,12.32,12.32,0,0,0-.88-5,6.79,6.79,0,0,0-2.87-3.15,14.57,14.57,0,0,0-5.23-1.65,56,56,0,0,0-8-.48L8.87.64Q7.41.67,5.94.73L3.07.87.53,1A.5.5,0,0,0,0,1.57V39.75a.5.5,0,0,0,.53.56q1.38.11,2.86.17l2.87.12,2.63.08,2.17,0a77.22,77.22,0,0,0,8.32-.4,17.59,17.59,0,0,0,6.12-1.67,8.72,8.72,0,0,0,3.79-3.69,13.66,13.66,0,0,0,1.3-6.46v-.93a11.82,11.82,0,0,0-.41-3.21A10.62,10.62,0,0,0,29,21.69ZM9.33,9q1.27-.08,2.22-.09H13.6Q15,8.88,16,9a4.78,4.78,0,0,1,1.75.48,2.44,2.44,0,0,1,1.06,1.09,4.38,4.38,0,0,1,.36,1.94v.37a4.73,4.73,0,0,1-.28,1.75A2.67,2.67,0,0,1,17,16.3a6.49,6.49,0,0,1-1.41.2H9.33ZM21.23,28.8a3.91,3.91,0,0,1-.41,1.93,2.55,2.55,0,0,1-1.37,1.1,9.06,9.06,0,0,1-2.54.49q-1.58.12-3.95.12h-.76l-1,0-1,0-.86,0V24.5h6.91a13.73,13.73,0,0,1,2.1.15,4,4,0,0,1,1.57.56,2.7,2.7,0,0,1,1,1.14,4.47,4.47,0,0,1,.35,1.9Z"/><path class="cls-1" d="M80,1H48.44a.47.47,0,0,0-.53.53V39.7a.47.47,0,0,0,.53.53h8.26a.47.47,0,0,0,.53-.53V9.75h14V39.7a.47.47,0,0,0,.53.53H80a.47.47,0,0,0,.53-.53V1.57A.47.47,0,0,0,80,1Z"/><path class="cls-1" d="M117,5.3a6.78,6.78,0,0,0-2-2.18,10.83,10.83,0,0,0-3.23-1.45,26,26,0,0,0-4.66-.81q-2.71-.25-6.35-.25L98,.64,94.72.71,91.27.81,87.93,1a.5.5,0,0,0-.53.56V39.7a.47.47,0,0,0,.53.53h8.26a.47.47,0,0,0,.53-.53V26.89l.84,0h3.17q3.64,0,6.35-.24a25.22,25.22,0,0,0,4.66-.8A10.81,10.81,0,0,0,115,24.46a6.76,6.76,0,0,0,2-2.18,9,9,0,0,0,1-3,23.45,23.45,0,0,0,.29-3.92V12.2A23.27,23.27,0,0,0,118,8.3,9,9,0,0,0,117,5.3Zm-8,9.34a5.72,5.72,0,0,1-.32,2.11A2.35,2.35,0,0,1,107.42,18a7,7,0,0,1-2.46.57q-1.57.13-4.07.13h-1l-1.09,0-1.09,0q-.53,0-1-.08V9l1-.07,1.09-.05,1.09,0h1q2.5,0,4.07.15a7.44,7.44,0,0,1,2.46.57,2.29,2.29,0,0,1,1.21,1.22,5.75,5.75,0,0,1,.32,2.1Z"/><path class="cls-1" d="M143.67,1.54a.84.84,0,0,0-.25-.4A.75.75,0,0,0,143,1H131.24a.75.75,0,0,0-.44.11.84.84,0,0,0-.25.4L119,39.72c-.11.34,0,.5.37.5h9.11a.62.62,0,0,0,.66-.5l1.57-5.87h12.83l1.59,5.87a.62.62,0,0,0,.66.5h9.17q.53,0,.37-.5ZM132.89,25.69l4.2-15.62,4.25,15.62Z"/><path class="cls-1" d="M182.65,1H158.85a.47.47,0,0,0-.53.53V39.7a.47.47,0,0,0,.53.53h8.24a.47.47,0,0,0,.53-.53V9.75h15a.47.47,0,0,0,.53-.53V1.57A.47.47,0,0,0,182.65,1Z"/><path class="cls-1" d="M212.33,1h-9a.59.59,0,0,0-.64.53L199,18.87q-.08-.56-.27-1.42a19.25,19.25,0,0,0-.56-2L193.42,1.54a.71.71,0,0,0-.72-.5h-9q-.53,0-.32.48l12.81,29.7a3.13,3.13,0,0,1-.9,1.12,4.17,4.17,0,0,1-1.38.66,10,10,0,0,1-1.94.33q-1.12.09-2.55.09-.53,0-1.21-.05T187,33.24a.47.47,0,0,0-.61.45l-.8,6a.71.71,0,0,0,.07.44.75.75,0,0,0,.39.25,11.68,11.68,0,0,0,1.91.47,14.18,14.18,0,0,0,2.26.17,24.61,24.61,0,0,0,5.62-.54,9.5,9.5,0,0,0,3.84-1.82,10.12,10.12,0,0,0,2.62-3.36,31.25,31.25,0,0,0,2-5.14l8.5-28.64Q212.86,1,212.33,1Z"/><path class="cls-1" d="M223.71,30.21l-7.76.93a.51.51,0,0,0-.53.58v8a.47.47,0,0,0,.53.53h7.76a.47.47,0,0,0,.53-.53v-9C224.24,30.35,224.06,30.19,223.71,30.21Z"/><path class="cls-1" d="M216.45,23.91h7.2a.47.47,0,0,0,.53-.53l.56-22.9q0-.5-.53-.48L215.9,1a.51.51,0,0,0-.53.58l.56,21.81A.47.47,0,0,0,216.45,23.91Z"/></g></g></svg>
