<svg xmlns="http://www.w3.org/2000/svg" viewBox="0 0 224.41 26.59"><defs><style>.cls-1{fill:#fff;}</style></defs><title>Text_3</title><g id="Слой_2" data-name="Слой 2"><g id="Layer_1" data-name="Layer 1"><path class="cls-1" d="M14.36,4.9H12.85a.33.33,0,0,0-.3.17L2.72,21.65q-.46.77-.75,1.29a5.5,5.5,0,0,1-.3.52l0-18.36a.18.18,0,0,0-.2-.2H.2a.18.18,0,0,0-.2.2v21a.18.18,0,0,0,.2.2H1.72A.33.33,0,0,0,2,26.1L11.9,9.4l.72-1.25a2.32,2.32,0,0,1,.29-.46V26.07a.18.18,0,0,0,.2.2h1.23a.18.18,0,0,0,.2-.2V5.1A.18.18,0,0,0,14.36,4.9Z"/><path class="cls-1" d="M40.18,6.73a5.71,5.71,0,0,0-2.56-1.66,11.35,11.35,0,0,0-3.49-.49,11.23,11.23,0,0,0-3.5.5,5.8,5.8,0,0,0-2.57,1.67,7.69,7.69,0,0,0-1.59,3.09,17.82,17.82,0,0,0-.54,4.77v2a17.89,17.89,0,0,0,.54,4.79,7.69,7.69,0,0,0,1.59,3.09,5.75,5.75,0,0,0,2.57,1.66,11.42,11.42,0,0,0,3.5.49,11.35,11.35,0,0,0,3.49-.49,5.7,5.7,0,0,0,2.56-1.66,7.68,7.68,0,0,0,1.57-3.09,18.12,18.12,0,0,0,.54-4.79v-2a18.13,18.13,0,0,0-.54-4.78A7.67,7.67,0,0,0,40.18,6.73Zm.43,9.95a15.65,15.65,0,0,1-.43,4,6.23,6.23,0,0,1-1.25,2.53,4.44,4.44,0,0,1-2,1.33,10.17,10.17,0,0,1-5.54,0,4.49,4.49,0,0,1-2-1.33A6.18,6.18,0,0,1,28,20.68a15.5,15.5,0,0,1-.43-4V14.46a15.15,15.15,0,0,1,.44-4A6.24,6.24,0,0,1,29.33,8a4.49,4.49,0,0,1,2-1.33,10.12,10.12,0,0,1,5.52,0,4.44,4.44,0,0,1,2,1.33,6.22,6.22,0,0,1,1.25,2.51,15.4,15.4,0,0,1,.43,4Z"/><path class="cls-1" d="M60.36,4.9H44.56a.18.18,0,0,0-.2.2V6.33a.18.18,0,0,0,.2.2h7.07V26.07a.18.18,0,0,0,.2.2h1.25a.18.18,0,0,0,.2-.2V6.54h7.07a.18.18,0,0,0,.2-.2V5.1A.18.18,0,0,0,60.36,4.9Z"/><path class="cls-1" d="M77.73,4.9H63.66a.18.18,0,0,0-.2.2v21a.18.18,0,0,0,.2.2H64.9a.18.18,0,0,0,.2-.2V6.54H76.28V26.07a.18.18,0,0,0,.2.2h1.25a.18.18,0,0,0,.2-.2V5.1A.18.18,0,0,0,77.73,4.9Z"/><path class="cls-1" d="M95.07,5.82A7.33,7.33,0,0,0,92.2,4.9,33,33,0,0,0,88,4.67H87l-1.17,0-1.24.05-1.13.06a.19.19,0,0,0-.2.22v21a.18.18,0,0,0,.2.2h1.23a.18.18,0,0,0,.2-.2V18.37l.47,0,.83,0,.94,0H88a33,33,0,0,0,4.23-.23,7.39,7.39,0,0,0,2.88-.91,4,4,0,0,0,1.64-1.93,8.66,8.66,0,0,0,.52-3.28V11a8.61,8.61,0,0,0-.52-3.28A4,4,0,0,0,95.07,5.82Zm.5,6.14a7.08,7.08,0,0,1-.38,2.52A3,3,0,0,1,93.93,16a6.05,6.05,0,0,1-2.35.74,27.64,27.64,0,0,1-3.6.2H87.3l-.86,0-.85,0-.64,0V6.33l.64,0,.85,0,.86,0H88a27.64,27.64,0,0,1,3.6.2,6.05,6.05,0,0,1,2.35.74A3,3,0,0,1,95.2,8.66a7.14,7.14,0,0,1,.38,2.53Z"/><path class="cls-1" d="M108.72,5.09a.27.27,0,0,0-.28-.19h-1.91a.27.27,0,0,0-.28.19l-7.59,21c-.06.13,0,.19.13.19h1.38a.27.27,0,0,0,.28-.19l2.12-5.91h9.84l2.12,5.91a.27.27,0,0,0,.28.19h1.42c.14,0,.19-.06.13-.19Zm-5.58,13.49,4.33-12,4.35,12Z"/><path class="cls-1" d="M132.34,15.84a3.9,3.9,0,0,0-1.05-1.1,4.68,4.68,0,0,0-1.37-.64,3.7,3.7,0,0,0,.94-.59,3.57,3.57,0,0,0,.75-.91,4.73,4.73,0,0,0,.5-1.25,6.49,6.49,0,0,0,.18-1.59V9.61a5.43,5.43,0,0,0-.5-2.5,3.54,3.54,0,0,0-1.51-1.51,7.3,7.3,0,0,0-2.54-.74,28.42,28.42,0,0,0-3.57-.2h-1.26l-1.26,0-1.19.06-1,.09a.34.34,0,0,0-.16.07.22.22,0,0,0,0,.16v21a.19.19,0,0,0,.2.22l1.29.09,1.33.06,1.3,0h1.19a30.88,30.88,0,0,0,3.76-.2A7,7,0,0,0,131,25.5a4.08,4.08,0,0,0,1.66-1.88,8.08,8.08,0,0,0,.56-3.29v-.75a8.57,8.57,0,0,0-.24-2.14A5.49,5.49,0,0,0,132.34,15.84Zm-11.48-9.5q.68-.07,1.56-.11t1.93,0q1.54,0,2.71.12a6,6,0,0,1,2,.49,2.62,2.62,0,0,1,1.2,1.1,4,4,0,0,1,.41,1.94v.23a4.71,4.71,0,0,1-.23,1.52,3.06,3.06,0,0,1-.7,1.17,3.21,3.21,0,0,1-1.2.76,5.25,5.25,0,0,1-1.71.3h-5.94Zm10.74,14a6.52,6.52,0,0,1-.4,2.52,2.84,2.84,0,0,1-1.24,1.4,5.49,5.49,0,0,1-2.14.6q-1.3.13-3.09.13l-2,0q-1,0-1.91-.1V15.4h6.71a6.4,6.4,0,0,1,1.63.2,3,3,0,0,1,1.28.67,3.16,3.16,0,0,1,.83,1.3,6.09,6.09,0,0,1,.3,2Z"/><path class="cls-1" d="M150.37,4.9H138.85a.18.18,0,0,0-.2.2V6.56q0,4.59-.12,7.9a44.59,44.59,0,0,1-.49,5.48,10,10,0,0,1-1,3.33,2.84,2.84,0,0,1-1.76,1.43.19.19,0,0,0-.16.25l.23,1.17a.18.18,0,0,0,.25.14,4.25,4.25,0,0,0,1.66-.8,4.86,4.86,0,0,0,1.25-1.59,10.72,10.72,0,0,0,.88-2.53,30.38,30.38,0,0,0,.56-3.62q.22-2.11.3-4.88t.09-6.31h8.62V26.07a.18.18,0,0,0,.2.2h1.25a.18.18,0,0,0,.2-.2V5.1A.18.18,0,0,0,150.37,4.9Z"/><path class="cls-1" d="M169.12,4.91q-1.41-.12-2.7-.14l-2.58,0a40,40,0,0,0-4,.17,6.89,6.89,0,0,0-2.76.8,3.71,3.71,0,0,0-1.58,1.82,8.47,8.47,0,0,0-.51,3.24v1.32a8.67,8.67,0,0,0,.4,2.87,3.76,3.76,0,0,0,1.31,1.8,4.29,4.29,0,0,0,1.27.67,9.59,9.59,0,0,0,1.71.4c-.18.24-.34.46-.46.67l-4.81,7.61c-.07.12,0,.17.09.17h1.68a.33.33,0,0,0,.3-.17l5-8.09,1.12,0h3.07l1,0,1.08-.06v8.1a.18.18,0,0,0,.2.2h1.23a.18.18,0,0,0,.2-.2V5.13A.19.19,0,0,0,169.12,4.91Zm-1.43,11.5-1,.07-1.07,0H163.8q-2,0-3.34-.13a5.58,5.58,0,0,1-2.22-.62A2.8,2.8,0,0,1,157,14.35a7,7,0,0,1-.38-2.57v-.85A6.55,6.55,0,0,1,157,8.34a2.79,2.79,0,0,1,1.28-1.39,5.73,5.73,0,0,1,2.23-.56q1.36-.1,3.26-.1H166l1,0a7.29,7.29,0,0,1,.73.07Z"/><path class="cls-1" d="M179.15,2.46a3.1,3.1,0,0,0,1.12.62,5.09,5.09,0,0,0,1.58.22,5.17,5.17,0,0,0,1.59-.22,3.1,3.1,0,0,0,1.12-.62,2.73,2.73,0,0,0,.7-1A4.67,4.67,0,0,0,185.58.2a.17.17,0,0,0-.19-.2h-1a.23.23,0,0,0-.25.2,2.44,2.44,0,0,1-.31.9,2,2,0,0,1-.54.59,2.06,2.06,0,0,1-.7.32,3.16,3.16,0,0,1-.77.09,3.18,3.18,0,0,1-.77-.09,2.06,2.06,0,0,1-.7-.32,2,2,0,0,1-.54-.59,2.42,2.42,0,0,1-.31-.9.23.23,0,0,0-.25-.2h-1a.17.17,0,0,0-.19.2,4.5,4.5,0,0,0,.34,1.28A2.78,2.78,0,0,0,179.15,2.46Z"/><path class="cls-1" d="M189,4.9h-1.51a.33.33,0,0,0-.3.17l-9.83,16.58q-.46.77-.75,1.29a5.5,5.5,0,0,1-.3.52l0-18.36a.18.18,0,0,0-.2-.2h-1.23a.18.18,0,0,0-.2.2v21a.18.18,0,0,0,.2.2h1.52a.33.33,0,0,0,.3-.17L186.58,9.4l.72-1.25a2.32,2.32,0,0,1,.29-.46V26.07a.18.18,0,0,0,.2.2H189a.18.18,0,0,0,.2-.2V5.1A.18.18,0,0,0,189,4.9Z"/><path class="cls-1" d="M206.88,24.62q-.9.16-2,.26t-2.45.1a10.34,10.34,0,0,1-3-.39,4.87,4.87,0,0,1-2.2-1.34,6.21,6.21,0,0,1-1.36-2.54,14.37,14.37,0,0,1-.47-4V14.46a14.31,14.31,0,0,1,.47-4,6.24,6.24,0,0,1,1.37-2.55,4.89,4.89,0,0,1,2.2-1.35,10.29,10.29,0,0,1,3-.39q1.07,0,2.2.08a17.52,17.52,0,0,1,2.1.27.18.18,0,0,0,.25-.16l.2-1.09a.27.27,0,0,0,0-.17A.24.24,0,0,0,207,5,15.54,15.54,0,0,0,205,4.7a25.36,25.36,0,0,0-2.55-.12,12.53,12.53,0,0,0-3.67.49A6.23,6.23,0,0,0,196,6.73a7.6,7.6,0,0,0-1.7,3.09,16.63,16.63,0,0,0-.59,4.78v2a16.62,16.62,0,0,0,.59,4.79,7.6,7.6,0,0,0,1.7,3.09,6.22,6.22,0,0,0,2.72,1.66,12.53,12.53,0,0,0,3.67.49q1.38,0,2.62-.12a16.1,16.1,0,0,0,2.1-.33.26.26,0,0,0,.15-.08.25.25,0,0,0,0-.17l-.19-1.12C207.11,24.64,207,24.59,206.88,24.62Z"/><path class="cls-1" d="M224.2,4.91q-1.41-.12-2.7-.14l-2.58,0a40,40,0,0,0-4,.17,6.89,6.89,0,0,0-2.76.8,3.71,3.71,0,0,0-1.58,1.82,8.47,8.47,0,0,0-.51,3.24v1.32a8.67,8.67,0,0,0,.4,2.87,3.76,3.76,0,0,0,1.31,1.8,4.29,4.29,0,0,0,1.27.67,9.59,9.59,0,0,0,1.71.4c-.18.24-.34.46-.46.67l-4.81,7.61c-.07.12,0,.17.09.17h1.68a.33.33,0,0,0,.3-.17l5-8.09,1.12,0h3.07l1,0,1.08-.06v8.1a.18.18,0,0,0,.2.2h1.23a.18.18,0,0,0,.2-.2V5.13A.19.19,0,0,0,224.2,4.91Zm-1.43,11.5-1,.07-1.07,0h-1.79q-2,0-3.34-.13a5.58,5.58,0,0,1-2.22-.62,2.8,2.8,0,0,1-1.24-1.43,7,7,0,0,1-.38-2.57v-.85a6.55,6.55,0,0,1,.41-2.59,2.79,2.79,0,0,1,1.28-1.39,5.73,5.73,0,0,1,2.23-.56q1.36-.1,3.26-.1H221l1,0a7.29,7.29,0,0,1,.73.07Z"/></g></g></svg>
