<svg xmlns="http://www.w3.org/2000/svg" viewBox="0 0 125.08 22.01"><defs><style>.cls-1{fill:#fff;}</style></defs><title>Text_1</title><g id="Слой_2" data-name="Слой 2"><g id="Layer_1" data-name="Layer 1"><path class="cls-1" d="M14.25,2.15A5.71,5.71,0,0,0,11.69.49,11.35,11.35,0,0,0,8.2,0,11.23,11.23,0,0,0,4.7.5,5.8,5.8,0,0,0,2.13,2.17,7.69,7.69,0,0,0,.54,5.25,17.82,17.82,0,0,0,0,10v2a17.89,17.89,0,0,0,.54,4.79,7.69,7.69,0,0,0,1.59,3.09A5.75,5.75,0,0,0,4.7,21.52,11.42,11.42,0,0,0,8.2,22a11.35,11.35,0,0,0,3.49-.49,5.7,5.7,0,0,0,2.56-1.66,7.68,7.68,0,0,0,1.57-3.09A18.12,18.12,0,0,0,16.36,12V10a18.13,18.13,0,0,0-.54-4.78A7.67,7.67,0,0,0,14.25,2.15Zm.43,9.95a15.65,15.65,0,0,1-.43,4A6.23,6.23,0,0,1,13,18.62a4.44,4.44,0,0,1-2,1.33,9.12,9.12,0,0,1-2.76.38,9.18,9.18,0,0,1-2.78-.38,4.49,4.49,0,0,1-2-1.33A6.18,6.18,0,0,1,2.12,16.1a15.5,15.5,0,0,1-.43-4V9.88a15.15,15.15,0,0,1,.44-4A6.24,6.24,0,0,1,3.4,3.41a4.49,4.49,0,0,1,2-1.33A9.12,9.12,0,0,1,8.2,1.7,9.12,9.12,0,0,1,11,2.08a4.44,4.44,0,0,1,2,1.33,6.22,6.22,0,0,1,1.25,2.51,15.4,15.4,0,0,1,.43,4Z"/><path class="cls-1" d="M34.43.32H18.64a.18.18,0,0,0-.2.2V1.75a.18.18,0,0,0,.2.2h7.07V21.49a.18.18,0,0,0,.2.2h1.25a.18.18,0,0,0,.2-.2V2h7.07a.18.18,0,0,0,.2-.2V.52A.18.18,0,0,0,34.43.32Z"/><path class="cls-1" d="M51.81.32H37.74a.18.18,0,0,0-.2.2v21a.18.18,0,0,0,.2.2H39a.18.18,0,0,0,.2-.2V2H50.36V21.49a.18.18,0,0,0,.2.2h1.25a.18.18,0,0,0,.2-.2V.52A.18.18,0,0,0,51.81.32Z"/><path class="cls-1" d="M69.15,1.24A7.33,7.33,0,0,0,66.27.32,33,33,0,0,0,62,.09h-.93l-1.17,0L58.71.19,57.58.25a.19.19,0,0,0-.2.22v21a.18.18,0,0,0,.2.2h1.23a.18.18,0,0,0,.2-.2V13.79l.47,0,.83,0,.94,0H62a33,33,0,0,0,4.23-.23,7.39,7.39,0,0,0,2.88-.91,4,4,0,0,0,1.64-1.93,8.66,8.66,0,0,0,.52-3.28V6.45a8.61,8.61,0,0,0-.52-3.28A4,4,0,0,0,69.15,1.24Zm.5,6.14a7.08,7.08,0,0,1-.38,2.52A3,3,0,0,1,68,11.41a6.05,6.05,0,0,1-2.35.74,27.64,27.64,0,0,1-3.6.2h-.68l-.86,0-.85,0-.64,0V1.75l.64,0,.85,0,.86,0h.68a27.64,27.64,0,0,1,3.6.2A6.05,6.05,0,0,1,68,2.56a3,3,0,0,1,1.27,1.52,7.14,7.14,0,0,1,.38,2.53Z"/><path class="cls-1" d="M82.79.51a.27.27,0,0,0-.28-.19H80.6a.27.27,0,0,0-.28.19l-7.59,21c-.06.13,0,.19.13.19h1.38a.27.27,0,0,0,.28-.19l2.12-5.91h9.84l2.12,5.91a.27.27,0,0,0,.28.19h1.42c.14,0,.19-.06.13-.19ZM77.21,14,81.54,2l4.35,12Z"/><path class="cls-1" d="M106.41,11.27a3.9,3.9,0,0,0-1.05-1.1A4.68,4.68,0,0,0,104,9.52a3.7,3.7,0,0,0,.94-.59,3.57,3.57,0,0,0,.75-.91,4.73,4.73,0,0,0,.5-1.25,6.49,6.49,0,0,0,.18-1.59V5a5.43,5.43,0,0,0-.5-2.5A3.54,3.54,0,0,0,104.36,1a7.3,7.3,0,0,0-2.54-.74,28.42,28.42,0,0,0-3.57-.2H97l-1.26,0L94.54.2l-1,.09a.34.34,0,0,0-.16.07.22.22,0,0,0,0,.16v21a.19.19,0,0,0,.2.22l1.29.09,1.33.06,1.3,0h1.19a30.88,30.88,0,0,0,3.76-.2,7,7,0,0,0,2.73-.85A4.08,4.08,0,0,0,106.77,19a8.08,8.08,0,0,0,.56-3.29V15a8.57,8.57,0,0,0-.24-2.14A5.49,5.49,0,0,0,106.41,11.27ZM94.93,1.77q.68-.07,1.56-.11t1.93,0q1.54,0,2.71.12a6,6,0,0,1,2,.49,2.62,2.62,0,0,1,1.2,1.1,4,4,0,0,1,.41,1.94v.23A4.71,4.71,0,0,1,104.48,7a3.06,3.06,0,0,1-.7,1.17,3.21,3.21,0,0,1-1.2.76,5.25,5.25,0,0,1-1.71.3H94.93Zm10.74,14a6.52,6.52,0,0,1-.4,2.52A2.84,2.84,0,0,1,104,19.7a5.49,5.49,0,0,1-2.14.6q-1.3.13-3.09.13l-2,0q-1,0-1.91-.1V10.82h6.71a6.4,6.4,0,0,1,1.63.2,3,3,0,0,1,1.28.67,3.16,3.16,0,0,1,.83,1.3,6.09,6.09,0,0,1,.3,2Z"/><path class="cls-1" d="M124.55,11.68A4.06,4.06,0,0,0,123,9.79a6.45,6.45,0,0,0-2.64-.86,29.61,29.61,0,0,0-3.72-.2h-.89l-.93,0-.87.05-.69.07V.52a.18.18,0,0,0-.2-.2h-1.25a.18.18,0,0,0-.2.2v21a.19.19,0,0,0,.2.22l1.22.09,1.27.06,1.23,0h1.12a29.61,29.61,0,0,0,3.71-.2,6.5,6.5,0,0,0,2.64-.86A4,4,0,0,0,124.55,19a8.59,8.59,0,0,0,.52-3.29V15A8.48,8.48,0,0,0,124.55,11.68Zm-1.12,4.07a6.86,6.86,0,0,1-.38,2.54,2.8,2.8,0,0,1-1.2,1.41,5.15,5.15,0,0,1-2.06.6,29.23,29.23,0,0,1-3,.13l-1.8,0q-.9,0-1.77-.1V10.48q.87-.07,1.79-.12t1.78,0q1.74,0,3,.12a5.08,5.08,0,0,1,2.06.59,2.8,2.8,0,0,1,1.2,1.4,6.79,6.79,0,0,1,.38,2.54Z"/></g></g></svg>
